# xmcd
#
# Track frame offsets:
#	150
#	16876
#	31283
#	47643
#	61311
#	77557
#	93570
#	110169
#	124390
#	140752
#	154480
#	170728
#
# Disc length: 2489 seconds
#
# Revision: 1
# Processed by: cddbd v1.5.2PL0 Copyright (c) Steve Scherf et al.
# Submitted via: audiograbber 1.83.01
#
DISCID=a909b70c
DTITLE=Singletary, Daryle - CB20613
DYEAR=1900
DGENRE=Karaoke
TTITLE0=Amen Kind Of Love w/vocal
TTITLE1=I Let Her Lie w/vocal
TTITLE2=My Baby's Lovin' w/vocal
TTITLE3=Too Much Fun w/vocal
TTITLE4=That's Where You're Wrong w/vocal
TTITLE5=Note, The w/vocal
TTITLE6=Amen Kind Of Love
TTITLE7=I Let Her Lie
TTITLE8=My Baby's Lovin'
TTITLE9=Too Much Fun
TTITLE10=That's Where You're Wrong
TTITLE11=Note, The
EXTD=
EXTT0=
EXTT1=
EXTT2=
EXTT3=
EXTT4=
EXTT5=
EXTT6=
EXTT7=
EXTT8=
EXTT9=
EXTT10=
EXTT11=
PLAYORDER=
